<svg width="24" height="23" viewBox="0 0 24 23" fill="none" xmlns="http://www.w3.org/2000/svg">
<g clip-path="url(#clip0_5404_2786)">
<path d="M12.0071 22.132L16.4231 8.54102H7.59106L12.0071 22.132Z" fill="#E24329"/>
<path d="M12.007 22.132L7.59101 8.54102H1.4021L12.007 22.132Z" fill="#FC6D26"/>
<path d="M1.40214 8.54102L0.0601964 12.6712C-0.0622036 13.0479 0.0718535 13.4606 0.392311 13.6934L12.0071 22.132L1.40214 8.54102Z" fill="#FCA326"/>
<path d="M1.4021 8.54104H7.59101L4.93124 0.355329C4.79444 -0.0659284 4.19856 -0.0658141 4.06176 0.355329L1.4021 8.54104Z" fill="#E24329"/>
<path d="M12.0071 22.132L16.4231 8.54102H22.612L12.0071 22.132Z" fill="#FC6D26"/>
<path d="M22.612 8.54102L23.9539 12.6712C24.0763 13.0479 23.9423 13.4606 23.6218 13.6934L12.0071 22.132L22.612 8.54102Z" fill="#FCA326"/>
<path d="M22.612 8.54104H16.4231L19.0829 0.355329C19.2197 -0.0659284 19.8156 -0.0658141 19.9524 0.355329L22.612 8.54104Z" fill="#E24329"/>
</g>
<defs>
<clipPath id="clip0_5404_2786">
<rect width="24" height="22.125" fill="white"/>
</clipPath>
</defs>
</svg>
