<svg width="18" height="20" viewBox="0 0 18 20" fill="none" xmlns="http://www.w3.org/2000/svg">
<path d="M8.76562 0C8.40104 0 8.10156 0.117188 7.86719 0.351562V0.351562C7.63281 0.585938 7.51562 0.885417 7.51562 1.25V1.95312C6.05729 2.21354 4.8724 2.8776 3.96094 3.94531C3.02344 5.01302 2.54167 6.30208 2.51562 7.8125V9.10156C2.48958 10.9245 1.91667 12.5521 0.796875 13.9844L0.210938 14.7266C-0.0234375 15.0391 -0.0625 15.3646 0.09375 15.7031C0.276042 16.0417 0.5625 16.224 0.953125 16.25H16.5781C16.9688 16.224 17.2552 16.0417 17.4375 15.7031C17.5677 15.3646 17.5286 15.0391 17.3203 14.7266L16.7344 13.9844C15.6146 12.5521 15.0417 10.9245 15.0156 9.10156V7.8125C14.9896 6.30208 14.5078 5.01302 13.5703 3.94531C12.6589 2.8776 11.474 2.21354 10.0156 1.95312V1.25C10.0156 0.885417 9.89844 0.585938 9.66406 0.351562C9.42969 0.117188 9.13021 0 8.76562 0V0V0M8.76562 3.75H9.07812C10.224 3.77604 11.1875 4.16667 11.9688 4.92188C12.724 5.70312 13.1146 6.66667 13.1406 7.8125V9.10156C13.1406 11.0286 13.6615 12.7865 14.7031 14.375H2.82812C3.84375 12.7865 4.36458 11.0286 4.39062 9.10156V7.8125C4.41667 6.66667 4.80729 5.70312 5.5625 4.92188C6.34375 4.16667 7.30729 3.77604 8.45312 3.75H8.76562V3.75V3.75M11.2656 17.5H8.76562H6.26562C6.26562 18.1771 6.51302 18.763 7.00781 19.2578C7.5026 19.7526 8.08854 20 8.76562 20C9.44271 20 10.0286 19.7526 10.5234 19.2578C11.0182 18.763 11.2656 18.1771 11.2656 17.5V17.5V17.5" fill="#374151"/>
</svg>
